<?xml version="1.0" encoding="UTF-8" standalone="no"?>
<svg
   xmlns:osb="http://www.openswatchbook.org/uri/2009/osb"
   xmlns:dc="http://purl.org/dc/elements/1.1/"
   xmlns:cc="http://creativecommons.org/ns#"
   xmlns:rdf="http://www.w3.org/1999/02/22-rdf-syntax-ns#"
   xmlns:svg="http://www.w3.org/2000/svg"
   xmlns="http://www.w3.org/2000/svg"
   xmlns:xlink="http://www.w3.org/1999/xlink"
   xmlns:sodipodi="http://sodipodi.sourceforge.net/DTD/sodipodi-0.dtd"
   xmlns:inkscape="http://www.inkscape.org/namespaces/inkscape"
   width="500"
   height="200"
   viewBox="0 0 132.29166 52.916668"
   version="1.1"
   id="svg8"
   inkscape:version="1.0.1 (3bc2e813f5, 2020-09-07)"
   sodipodi:docname="drawing.svg">
  <defs
     id="defs2">
    <linearGradient
       inkscape:collect="always"
       id="linearGradient1053">
      <stop
         style="stop-color:#5da0cc;stop-opacity:1"
         offset="0"
         id="stop1049" />
      <stop
         style="stop-color:#4fc592;stop-opacity:1"
         offset="1"
         id="stop1051" />
    </linearGradient>
    <linearGradient
       id="linearGradient835"
       osb:paint="solid">
      <stop
         style="stop-color:#ffffff;stop-opacity:1;"
         offset="0"
         id="stop833" />
    </linearGradient>
    <linearGradient
       inkscape:collect="always"
       xlink:href="#linearGradient1053"
       id="linearGradient1055"
       x1="0.66817379"
       y1="0.80045933"
       x2="52.248493"
       y2="52.784382"
       gradientUnits="userSpaceOnUse"
       gradientTransform="scale(3.7795276)" />
  </defs>
  <sodipodi:namedview
     id="base"
     pagecolor="#ffffff"
     bordercolor="#666666"
     borderopacity="1.0"
     inkscape:pageopacity="0.0"
     inkscape:pageshadow="2"
     inkscape:zoom="0.7"
     inkscape:cx="-61.584932"
     inkscape:cy="196.33438"
     inkscape:document-units="mm"
     inkscape:current-layer="layer1"
     inkscape:document-rotation="0"
     showgrid="false"
     units="px"
     inkscape:snap-text-baseline="false"
     inkscape:window-width="2560"
     inkscape:window-height="1360"
     inkscape:window-x="-11"
     inkscape:window-y="-11"
     inkscape:window-maximized="1" />
  <metadata
     id="metadata5">
    <rdf:RDF>
      <cc:Work
         rdf:about="">
        <dc:format>image/svg+xml</dc:format>
        <dc:type
           rdf:resource="http://purl.org/dc/dcmitype/StillImage" />
        <dc:title></dc:title>
      </cc:Work>
    </rdf:RDF>
  </metadata>
  <g
     inkscape:label="Logo"
     inkscape:groupmode="layer"
     id="layer1">
    <path
       id="path1175"
       style="display:inline;fill:#4fc592;fill-opacity:1;stroke:none;stroke-width:0;stroke-miterlimit:4;stroke-dasharray:none;stroke-opacity:1"
       d="M 128.81836,4.2441406 A 80.147641,80.147641 0 0 1 141.04102,46.785156 80.147641,80.147641 0 0 1 60.892578,126.93359 80.147641,80.147641 0 0 1 0.0078125,98.904297 100,100 0 0 0 0,100 100,100 0 0 0 100,200 100,100 0 0 0 200,100 100,100 0 0 0 128.81836,4.2441406 Z"
       inkscape:label="IcoL2"
       transform="scale(0.26458333)" />
    <path
       id="path10"
       style="display:inline;fill:url(#linearGradient1055);fill-opacity:1;fill-rule:evenodd;stroke-width:0.999999"
       inkscape:label="IcoL1"
       d="M 127.04883,3.7285156 A 89.790497,89.790497 0 0 1 163.89844,76.25 89.790497,89.790497 0 0 1 74.107422,166.04102 89.790497,89.790497 0 0 1 6.4160156,135.24219 100,100 0 0 0 100,200 100,100 0 0 0 200,100 100,100 0 0 0 127.04883,3.7285156 Z"
       transform="scale(0.26458333)" />
    <g
       aria-label="Symetra"
       id="text14-0"
       style="font-style:normal;font-variant:normal;font-weight:500;font-stretch:normal;font-size:26.8907px;line-height:1.25;font-family:Rubik;-inkscape-font-specification:'Rubik Medium';fill:#434343;fill-opacity:1;stroke:none;stroke-width:0;stroke-miterlimit:4;stroke-dasharray:none;stroke-opacity:1"
       inkscape:label="Symetra"
       transform="translate(-1.7523124,0.51842192)">
      <path
         id="path963"
         style="font-style:normal;font-variant:normal;font-weight:500;font-stretch:normal;font-size:26.8907px;font-family:Rubik;-inkscape-font-specification:'Rubik Medium';fill:#ffffff;fill-opacity:1;stroke:none;stroke-width:0;stroke-miterlimit:4;stroke-dasharray:none;stroke-opacity:1"
         d="m 361.81055,43.605469 c -1.78448,-0.01386 -3.57364,0.04015 -5.33203,0.01367 -7.84568,0.02419 -14.51443,7.259789 -14.3125,15.023437 0.49872,2.401474 0.0859,5.578648 -2.77344,6.164063 -1.71093,0.941075 -3.15194,2.220802 -4.32031,3.714843 -4.87688,-3.499014 -10.56545,-5.780293 -16.38086,-6.248046 -3.02086,-0.197367 -6.10528,-0.331994 -9.16211,-0.199219 -9.32095,0.480174 -18.17595,5.251733 -24.13477,12.007812 -0.46499,0.50558 -0.90621,1.02993 -1.33594,1.5625 -4.04419,-6.260076 -10.16613,-11.113886 -17.60742,-12.6875 -8.00621,-1.997253 -16.67677,-0.68472 -23.90429,3.236328 -5.59668,-3.213086 -12.07841,-4.493924 -18.49219,-4.148437 -4.51426,0.07317 -8.87922,2.896577 -13.42774,1.21875 -5.31333,-0.699292 -11.13651,-0.676325 -16.08203,1.554687 -2.67225,-1.556573 -5.77859,-2.341497 -8.8789,-1.939453 -1.54833,-0.07177 -3.09314,-0.0067 -4.64063,0.05078 -5.84437,0.16834 -12.43341,2.645109 -14.4375,8.660156 -1.06866,2.242356 -2.29386,4.405319 -3.43359,6.613281 -2.42579,-5.820374 -5.3449,-12.874753 -12.15821,-14.527344 -4.45312,-0.848552 -9.38338,-1.08571 -14.08007,-0.404297 -5.74501,-10.968261 -17.85309,-18.000117 -30.07227,-19.28125 -2.75199,-0.284333 -5.52422,-0.334373 -8.289062,-0.259765 -14.079077,0.08239 -29.035031,7.821206 -34.275391,21.423828 -3.932262,10.19475 -1.822454,22.197998 4.888672,30.744141 -5.772049,2.708776 -9.420912,9.047456 -8.740235,15.398446 1.513293,13.79154 13.241663,24.77505 26.392578,27.875 15.039628,3.43531 32.328948,2.12284 44.644528,-7.97461 4.18704,-3.48055 7.23409,-8.11604 9.00782,-13.20313 0.95885,2.26311 1.91795,4.52602 2.87695,6.78906 -2.86667,7.69504 -8.23749,15.2496 -6.89844,23.83203 2.0321,7.81094 10.97037,12.03676 18.56055,10.66407 7.56418,0.77681 15.77941,-3.77739 17.6875,-11.4336 4.6594,-10.80341 9.45488,-21.55719 14.15625,-32.34961 0.0952,4.761 0.28524,9.50406 0.68164,14.20508 2.00111,7.51202 10.57726,11.1673 17.80664,10.28321 6.09521,0.40797 12.71789,-1.25896 16.59961,-6.30665 3.54613,4.51928 9.31605,6.41087 14.90234,6.33008 5.98395,0.36586 12.51131,-0.59966 16.83399,-5.15625 1.74662,-2.2546 3.17296,1.97995 5.11523,2.49219 5.78198,3.37997 12.92368,2.99243 19.32227,2.16211 4.2067,-0.93791 7.98568,-3.872 9.92578,-7.68555 0.79953,0.72778 1.63714,1.42308 2.52344,2.07227 11.11233,7.86039 25.68132,9.0462 38.32031,4.20117 6.58362,-2.63676 13.0745,-7.13061 16.8418,-13.25977 0.80685,1.65391 1.77241,3.24848 2.96484,4.74805 6.52874,8.07097 17.48299,11.02847 27.51172,10.31836 3.86698,0.25356 8.27056,-0.22611 11.80859,-2.04101 3.50615,1.91288 7.7631,2.64403 11.63477,2.04296 7.58494,1.09153 17.04147,-3.15091 18.06054,-11.4707 1.40221,-9.76801 0.18334,-19.64454 0.53321,-29.462894 1.3592,0.293231 2.78034,0.444969 4.21093,0.455078 -6.77678,10.897066 -4.34465,26.931866 6.3379,34.523446 9.36449,7.40114 22.65311,8.76538 33.68359,4.58203 6.34503,2.09685 13.36918,1.81292 19.76172,0.16992 6.91241,-3.01453 10.24499,-11.31627 8.77344,-18.47266 -0.46084,-13.12557 1.58289,-26.656393 -2.29883,-39.42383 -4.9375,-12.052675 -18.20423,-19.157064 -30.92578,-18.730468 -1.59028,-0.05239 -3.18279,-0.01077 -4.77344,-0.0059 -6.23428,0.180109 -12.5794,2.166044 -17.93555,5.578125 -2.86072,-3.025333 -7.10027,-4.748741 -11.31445,-4.724609 -1.31989,-0.103937 -2.63263,-0.0464 -3.95313,0.0098 -3.55978,0.126992 -7.09504,1.26178 -10.55078,1.55664 -6.0712,-2.295152 -12.90079,-1.966075 -19.13867,-0.582031 -0.97545,0.310073 -1.87645,0.73589 -2.71094,1.248047 -0.13464,-0.07272 -0.2575,-0.156044 -0.39648,-0.22461 -2.30483,-1.312834 -4.94272,-1.771552 -7.50781,-2.292968 0.43687,-6.813831 -1.86803,-15.197182 -8.96485,-17.701172 -2.79193,-1.092659 -5.75438,-1.305023 -8.72851,-1.328125 z m 18.68359,54.783203 c -0.0107,1.989588 -0.0206,3.977998 -0.0293,5.966798 -0.28372,-0.0167 -0.56781,-0.0326 -0.85156,-0.0352 -0.38705,-1.90219 -0.41454,-4.480884 0.88086,-5.931638 z"
         transform="scale(0.26458333)"
         inkscape:label="Outline" />
      <text
         xml:space="preserve"
         style="font-style:normal;font-variant:normal;font-weight:500;font-stretch:normal;font-size:26.8907px;line-height:1.25;font-family:Rubik;-inkscape-font-specification:'Rubik Medium';fill:#434343;fill-opacity:1;stroke:none;stroke-width:0;stroke-miterlimit:4;stroke-dasharray:none;stroke-opacity:1"
         x="18.276365"
         y="33.990696"
         id="text14"
         inkscape:label="Text"><tspan
           sodipodi:role="line"
           id="tspan12"
           x="18.276365"
           y="33.990696"
           style="font-style:normal;font-variant:normal;font-weight:500;font-stretch:normal;font-size:26.8907px;font-family:Rubik;-inkscape-font-specification:'Rubik Medium';fill:#434343;fill-opacity:1;stroke:none;stroke-width:0;stroke-miterlimit:4;stroke-dasharray:none;stroke-opacity:1">Symetra</tspan></text>
    </g>
  </g>
</svg>
